<svg width="124" height="29" viewBox="0 0 124 29" fill="none" xmlns="http://www.w3.org/2000/svg">
<path fill-rule="evenodd" clip-rule="evenodd" d="M34.2407 18.1933L26.1666 26.2674C24.1896 28.2444 20.9842 28.2444 19.0072 26.2674C17.0302 24.2903 17.0302 21.0849 19.0072 19.1079L35.7126 2.40252C36.2025 1.91264 36.7678 1.54413 37.3711 1.29703C37.9665 1.05102 38.619 0.915283 39.3032 0.915283C42.0991 0.915283 44.3657 3.18184 44.3657 5.97778V22.8528C44.3657 25.6487 42.0991 27.9153 39.3032 27.9153C36.5073 27.9153 34.2407 25.6487 34.2407 22.8528V18.1933ZM8.64223 26.3574C6.6652 28.3344 3.4598 28.3344 1.48277 26.3574C-0.494257 24.3803 -0.494257 21.1749 1.48277 19.1979L18.1882 2.49251C20.1652 0.515479 23.3706 0.515478 25.3476 2.49251C27.3247 4.46954 27.3247 7.67493 25.3476 9.65196L8.64223 26.3574ZM50.5378 27.5819C51.1618 27.9173 51.8872 28.085 52.714 28.085C53.5486 28.085 54.2701 27.9485 54.8785 27.6755C55.4947 27.4025 55.9783 27.11 56.3293 26.798V27.8978H59.7106V19.2866C59.7106 18.101 59.5195 17.1728 59.1373 16.502C58.7629 15.8312 58.1857 15.3554 57.4057 15.0746C56.6335 14.7938 55.6468 14.6534 54.4456 14.6534C53.7124 14.6534 52.9831 14.7353 52.2577 14.8991C51.5323 15.0551 50.8888 15.2384 50.3272 15.449C49.7656 15.6596 49.3522 15.8429 49.087 15.9989L49.8592 18.2453C50.179 18.0815 50.5768 17.9294 51.0526 17.789C51.5284 17.6486 52.0315 17.5355 52.5619 17.4497C53.1001 17.3639 53.6149 17.321 54.1063 17.321C54.7615 17.321 55.2646 17.4263 55.6156 17.6369C55.9666 17.8397 56.1421 18.2726 56.1421 18.9356V19.895C55.6195 19.895 55.054 19.9184 54.4456 19.9652C53.845 20.012 53.2405 20.0939 52.6321 20.2109C52.0315 20.3279 51.4777 20.4917 50.9707 20.7023C50.2297 21.0221 49.6408 21.4667 49.204 22.0361C48.775 22.6055 48.5605 23.288 48.5605 24.0836C48.5605 24.8792 48.7321 25.5773 49.0753 26.1779C49.4263 26.7785 49.9138 27.2465 50.5378 27.5819ZM56.1421 21.7787C55.8613 21.7787 55.5454 21.7982 55.1944 21.8372C54.8434 21.8762 54.5041 21.9347 54.1765 22.0127C53.8567 22.0829 53.5876 22.1648 53.3692 22.2584C53.065 22.3988 52.792 22.586 52.5502 22.82C52.3162 23.054 52.1992 23.4128 52.1992 23.8964C52.1992 24.5282 52.3747 24.9962 52.7257 25.3004C53.0767 25.5968 53.5291 25.745 54.0829 25.745C54.3715 25.745 54.6562 25.706 54.937 25.628C55.2256 25.55 55.4791 25.4603 55.6975 25.3589C55.9159 25.2497 56.0641 25.1483 56.1421 25.0547V21.7787ZM61.9171 26.9501L62.4085 27.8978H72.763V25.3706H66.7258L67.4395 24.3527L73.1023 15.9638L72.6928 14.864H62.7829L62.7712 17.3678H68.3404L67.6618 18.3857L61.9171 26.9501ZM75.5802 14.8757V27.8978H79.1487V14.8757H75.5802ZM75.7206 12.4538C76.1184 12.8126 76.6059 12.992 77.1831 12.992C77.7993 12.992 78.3297 12.7853 78.7743 12.3719C79.2267 11.9507 79.4529 11.4437 79.4529 10.8509C79.4529 10.2815 79.2696 9.81736 78.903 9.45856C78.5442 9.09196 78.045 8.90866 77.4054 8.90866C77.0076 8.90866 76.6332 9.00616 76.2822 9.20116C75.939 9.39616 75.6582 9.65746 75.4398 9.98506C75.2292 10.3049 75.1239 10.6598 75.1239 11.0498C75.1239 11.627 75.3228 12.095 75.7206 12.4538ZM82.8682 14.8757V27.8978H86.425V18.5144C86.6824 18.3038 86.9593 18.1283 87.2557 17.9879C87.5599 17.8397 87.8563 17.7305 88.1449 17.6603C88.4413 17.5823 88.7065 17.5394 88.9405 17.5316C89.7127 17.5004 90.2314 17.6876 90.4966 18.0932C90.7618 18.4988 90.8944 19.2086 90.8944 20.2226V27.8978H94.4746V19.7195C94.4746 17.8319 94.1548 16.5137 93.5152 15.7649C92.8756 15.0083 91.8772 14.6456 90.52 14.6768C89.9506 14.6846 89.3851 14.7743 88.8235 14.9459C88.2697 15.1175 87.7627 15.332 87.3025 15.5894C86.8423 15.839 86.464 16.0886 86.1676 16.3382L86.1091 14.8757H82.8682ZM106.14 26.5556V27.8978H109.416V8.88526H105.882V13.8812L105.915 15.0238C105.852 15.0022 105.787 14.9801 105.718 14.9576C105.204 14.786 104.545 14.7002 103.741 14.7002C102.415 14.7002 101.261 14.9927 100.278 15.5777C99.2951 16.1627 98.5307 16.9934 97.9847 18.0698C97.4387 19.1384 97.1657 20.3942 97.1657 21.8372C97.1657 23.249 97.4036 24.4151 97.8794 25.3355C98.3552 26.2559 98.9792 26.9462 99.7514 27.4064C100.531 27.8588 101.382 28.085 102.302 28.085C103.074 28.085 103.726 27.9836 104.256 27.7808C104.786 27.5702 105.219 27.3323 105.555 27.0671C105.787 26.8778 105.982 26.7073 106.14 26.5556ZM105.882 24.595V17.6389C105.688 17.4803 105.415 17.3704 105.063 17.3093C104.704 17.2391 104.295 17.204 103.835 17.204C103.273 17.204 102.766 17.3678 102.314 17.6954C101.869 18.0152 101.514 18.5027 101.249 19.1579C100.992 19.8053 100.863 20.6165 100.863 21.5915C100.847 22.9409 101.07 23.9081 101.53 24.4931C101.998 25.0781 102.637 25.3706 103.449 25.3706C103.948 25.3706 104.416 25.2848 104.853 25.1132C105.29 24.9442 105.634 24.7715 105.882 24.595ZM114.248 27.5819C114.872 27.9173 115.597 28.085 116.424 28.085C117.259 28.085 117.98 27.9485 118.589 27.6755C119.205 27.4025 119.688 27.11 120.039 26.798V27.8978H123.421V19.2866C123.421 18.101 123.23 17.1728 122.847 16.502C122.473 15.8312 121.896 15.3554 121.116 15.0746C120.344 14.7938 119.357 14.6534 118.156 14.6534C117.423 14.6534 116.693 14.7353 115.968 14.8991C115.242 15.0551 114.599 15.2384 114.037 15.449C113.476 15.6596 113.062 15.8429 112.797 15.9989L113.569 18.2453C113.889 18.0815 114.287 17.9294 114.763 17.789C115.239 17.6486 115.742 17.5355 116.272 17.4497C116.81 17.3639 117.325 17.321 117.816 17.321C118.472 17.321 118.975 17.4263 119.326 17.6369C119.677 17.8397 119.852 18.2726 119.852 18.9356V19.895C119.33 19.895 118.764 19.9184 118.156 19.9652C117.555 20.012 116.951 20.0939 116.342 20.2109C115.742 20.3279 115.188 20.4917 114.681 20.7023C113.94 21.0221 113.351 21.4667 112.914 22.0361C112.485 22.6055 112.271 23.288 112.271 24.0836C112.271 24.8792 112.442 25.5773 112.785 26.1779C113.136 26.7785 113.624 27.2465 114.248 27.5819ZM119.852 21.7787C119.571 21.7787 119.256 21.7982 118.905 21.8372C118.554 21.8762 118.214 21.9347 117.887 22.0127C117.567 22.0829 117.298 22.1648 117.079 22.2584C116.775 22.3988 116.502 22.586 116.26 22.82C116.026 23.054 115.909 23.4128 115.909 23.8964C115.909 24.5282 116.085 24.9962 116.436 25.3004C116.787 25.5968 117.239 25.745 117.793 25.745C118.082 25.745 118.366 25.706 118.647 25.628C118.936 25.55 119.189 25.4603 119.408 25.3589C119.626 25.2497 119.774 25.1483 119.852 25.0547V21.7787Z" fill="#2D8FB2"/>
</svg>
